# xmcd
#
# Track frame offsets:
#	150
#	15532
#	35687
#	55132
#	72147
#	87825
#	108340
#	128972
#
# Disc length: 2076 seconds
#
# Revision: 1
# Processed by: cddbd v1.5.1PL0 Copyright (c) Steve Scherf et al.
# Submitted via: CDex 1.50Beta5
#
DISCID=63081a08
DTITLE=farmstay - 無限ワープ
DYEAR=1900
DGENRE=Rock
TTITLE0=五月雨コード
TTITLE1=夕暮音楽
TTITLE2=無限
TTITLE3=烈火
TTITLE4=AI COMPANY
TTITLE5=行かなくちゃ
TTITLE6=resound
TTITLE7=site/sound
EXTD=
EXTT0=
EXTT1=
EXTT2=
EXTT3=
EXTT4=
EXTT5=
EXTT6=
EXTT7=
PLAYORDER=
